<svg width="43" height="43" viewBox="0 0 43 43" fill="none" xmlns="http://www.w3.org/2000/svg">
<path d="M10.3021 17.0208V24.8594C10.3021 25.0153 10.2698 25.1693 10.2062 25.3118L7.73909 30.9063H35.2627L32.7938 25.3118C32.731 25.1692 32.6986 25.0151 32.6988 24.8594V17.0208C32.6988 10.836 27.6857 5.82293 21.5009 5.82293C15.316 5.82293 10.3021 10.836 10.3021 17.0208ZM16.125 33.1458H7.39419C7.0589 33.1457 6.72893 33.062 6.43416 32.9022C6.13939 32.7424 5.88915 32.5116 5.70608 32.2307C5.52302 31.9498 5.41293 31.6277 5.38577 31.2935C5.35862 30.9593 5.41526 30.6236 5.55057 30.3168L8.06249 24.6238V17.0208C8.06249 9.59976 14.0789 3.58334 21.5 3.58334C28.9211 3.58334 34.9375 9.59976 34.9375 17.0208V24.6238L37.4494 30.3168C37.5847 30.6236 37.6414 30.9593 37.6142 31.2935C37.587 31.6277 37.477 31.9498 37.2939 32.2307C37.1108 32.5116 36.8606 32.7424 36.5658 32.9022C36.271 33.062 35.9411 33.1457 35.6058 33.1458H26.875V34.0417C26.875 35.4672 26.3087 36.8344 25.3007 37.8424C24.2927 38.8504 22.9255 39.4167 21.5 39.4167C20.0744 39.4167 18.7073 38.8504 17.6993 37.8424C16.6913 36.8344 16.125 35.4672 16.125 34.0417V33.1458ZM24.6354 33.1458H18.3646V34.0417C18.3646 34.8732 18.6949 35.6707 19.2829 36.2588C19.8709 36.8468 20.6684 37.1771 21.5 37.1771C22.3316 37.1771 23.1291 36.8468 23.7171 36.2588C24.3051 35.6707 24.6354 34.8732 24.6354 34.0417V33.1458Z" fill="black"/>
</svg>
