<svg width="18" height="18" viewBox="0 0 18 18" fill="none" xmlns="http://www.w3.org/2000/svg">
<path d="M14.3774 6.74994H11.3624C11.1224 6.74994 10.9049 6.64494 10.7624 6.44994C10.692 6.35707 10.6445 6.24892 10.6236 6.13427C10.6028 6.01961 10.6092 5.90165 10.6424 5.78994L11.0474 4.36494C11.2424 3.68244 11.1074 2.96244 10.6799 2.39244C10.4708 2.11307 10.1989 1.88675 9.88627 1.73173C9.57361 1.5767 9.2289 1.49731 8.87993 1.49994H7.86743C7.52993 1.49994 7.23743 1.72494 7.14743 2.04744L6.28493 5.05494C6.13313 5.59459 5.83244 6.08059 5.41727 6.45729C5.00211 6.83398 4.48925 7.08616 3.93743 7.18494L2.10743 7.51494C1.74743 7.58244 1.49243 7.88994 1.49243 8.24994V14.9999C1.49243 15.4124 1.82993 15.7499 2.24243 15.7499H4.05743C4.76243 15.7499 5.45993 15.8624 6.12743 16.0874C6.95243 16.3649 7.80743 16.4999 8.67743 16.4999H12.8699C14.0399 16.4999 14.9924 15.5474 14.9924 14.3774C14.9924 14.0324 14.9099 13.7024 14.7599 13.4174C15.2046 13.1338 15.5277 12.6948 15.6663 12.186C15.805 11.6771 15.7492 11.1349 15.5099 10.6649C16.1024 10.2899 16.4924 9.62244 16.4924 8.87244C16.4924 7.70244 15.5399 6.74994 14.3699 6.74994H14.3774Z" fill="#0A2E65"/>
</svg>
