<svg width="33" height="33" viewBox="0 0 33 33" fill="none" xmlns="http://www.w3.org/2000/svg">
<path d="M26.95 28.875L18.2875 20.2125C17.6 20.7625 16.8094 21.1979 15.9156 21.5187C15.0219 21.8396 14.0708 22 13.0625 22C10.5646 22 8.45075 21.1347 6.721 19.404C4.99125 17.6733 4.12592 15.5595 4.125 13.0625C4.12408 10.5655 4.98942 8.45167 6.721 6.721C8.45258 4.99033 10.5664 4.125 13.0625 4.125C15.5586 4.125 17.6729 4.99033 19.4054 6.721C21.1379 8.45167 22.0028 10.5655 22 13.0625C22 14.0708 21.8396 15.0219 21.5188 15.9156C21.1979 16.8094 20.7625 17.6 20.2125 18.2875L28.875 26.95L26.95 28.875ZM13.0625 19.25C14.7813 19.25 16.2424 18.6487 17.446 17.446C18.6496 16.2433 19.2509 14.7822 19.25 13.0625C19.2491 11.3428 18.6478 9.88213 17.446 8.68038C16.2443 7.47863 14.7831 6.87683 13.0625 6.875C11.3419 6.87317 9.88121 7.47496 8.68038 8.68038C7.47954 9.88579 6.87775 11.3465 6.875 13.0625C6.87225 14.7785 7.47404 16.2397 8.68038 17.446C9.88671 18.6523 11.3474 19.2537 13.0625 19.25Z" fill="black"/>
</svg>
