<svg width="38" height="38" viewBox="0 0 38 38" fill="none" xmlns="http://www.w3.org/2000/svg">
<path d="M14.5271 17.1396C13.2868 15.8993 12.6667 14.4083 12.6667 12.6667C12.6667 10.925 13.2868 9.43404 14.5271 8.19376C15.7674 6.95348 17.2584 6.33334 19 6.33334C20.7417 6.33334 22.2327 6.95348 23.473 8.19376C24.7132 9.43404 25.3334 10.925 25.3334 12.6667C25.3334 14.4083 24.7132 15.8993 23.473 17.1396C22.2327 18.3799 20.7417 19 19 19C17.2584 19 15.7674 18.3799 14.5271 17.1396ZM6.33337 31.6667V27.2333C6.33337 26.3361 6.56454 25.5117 7.02687 24.7602C7.48921 24.0086 8.10248 23.4344 8.86671 23.0375C10.5028 22.2195 12.1653 21.6062 13.8542 21.1977C15.5431 20.7892 17.2584 20.5844 19 20.5833C20.7417 20.5823 22.457 20.7871 24.1459 21.1977C25.8348 21.6083 27.4973 22.2216 29.1334 23.0375C29.8986 23.4333 30.5125 24.0076 30.9748 24.7602C31.4371 25.5128 31.6678 26.3372 31.6667 27.2333V31.6667H6.33337Z" fill="#0A2E65"/>
</svg>
