<svg width="49" height="49" viewBox="0 0 49 49" fill="none" xmlns="http://www.w3.org/2000/svg">
<path d="M14.0226 18.8874H34.5084M14.0226 29.6335H28.6321M24.2655 47.7709C29.3727 47.7698 34.3406 46.1056 38.418 43.0302C42.4954 39.9547 45.4604 35.6352 46.8647 30.7249C48.2689 25.8145 48.0361 20.5804 46.2013 15.8142C44.3665 11.048 41.0296 7.00883 36.6952 4.30761C32.3609 1.60639 27.2648 0.390018 22.1777 0.842463C17.0906 1.29491 12.2891 3.39156 8.49949 6.81532C4.70987 10.2391 2.13819 14.8038 1.17336 19.819C0.208542 24.8342 0.903057 30.0272 3.15188 34.6127C3.42638 35.1718 3.51788 35.8021 3.37809 36.4071L1.30409 45.3944C1.24562 45.6466 1.25232 45.9096 1.32357 46.1585C1.39483 46.4074 1.52828 46.6341 1.71135 46.8171C1.89442 47.0002 2.1211 47.1337 2.37 47.2049C2.61891 47.2762 2.88187 47.2829 3.13409 47.2244L12.1189 45.1479C12.7255 45.015 13.3594 45.0958 13.9133 45.3766C17.1346 46.9585 20.6768 47.7778 24.2655 47.7709Z" stroke="#D9D9D9" stroke-width="1.5" stroke-linecap="round" stroke-linejoin="round"/>
</svg>
