<svg width="38" height="38" viewBox="0 0 38 38" fill="none" xmlns="http://www.w3.org/2000/svg">
<path d="M14.527 17.1396C13.2867 15.8993 12.6666 14.4083 12.6666 12.6667C12.6666 10.925 13.2867 9.43404 14.527 8.19376C15.7673 6.95348 17.2583 6.33334 18.9999 6.33334C20.7416 6.33334 22.2326 6.95348 23.4728 8.19376C24.7131 9.43404 25.3333 10.925 25.3333 12.6667C25.3333 14.4083 24.7131 15.8993 23.4728 17.1396C22.2326 18.3799 20.7416 19 18.9999 19C17.2583 19 15.7673 18.3799 14.527 17.1396ZM6.33325 31.6667V27.2333C6.33325 26.3361 6.56442 25.5117 7.02675 24.7602C7.48909 24.0086 8.10236 23.4344 8.86659 23.0375C10.5027 22.2195 12.1652 21.6062 13.8541 21.1977C15.543 20.7892 17.2583 20.5844 18.9999 20.5833C20.7416 20.5823 22.4569 20.7871 24.1458 21.1977C25.8346 21.6083 27.4971 22.2216 29.1332 23.0375C29.8985 23.4333 30.5123 24.0076 30.9747 24.7602C31.437 25.5128 31.6676 26.3372 31.6666 27.2333V31.6667H6.33325Z" fill="#0A2E65"/>
</svg>
