<svg width="50" height="50" viewBox="0 0 50 50" fill="none" xmlns="http://www.w3.org/2000/svg">
<path d="M46.7156 1.23164L48.0677 2.58372C49.9308 4.44914 49.649 7.75602 47.4329 9.96977L19.5502 37.8525L10.5165 41.1571C9.38208 41.5741 8.2775 41.0333 8.05292 39.9539C7.97727 39.5624 8.01299 39.1574 8.15604 38.7852L11.5248 29.6735L39.3296 1.86643C41.5456 -0.347319 44.8525 -0.633777 46.7156 1.23164ZM18.3333 4.00456C18.6343 4.00456 18.9323 4.06383 19.2103 4.179C19.4884 4.29417 19.741 4.46297 19.9538 4.67577C20.1666 4.88857 20.3354 5.1412 20.4506 5.41924C20.5657 5.69728 20.625 5.99528 20.625 6.29622C20.625 6.59717 20.5657 6.89517 20.4506 7.17321C20.3354 7.45124 20.1666 7.70388 19.9538 7.91668C19.741 8.12948 19.4884 8.29828 19.2103 8.41345C18.9323 8.52861 18.6343 8.58789 18.3333 8.58789H9.16667C7.95109 8.58789 6.7853 9.07078 5.92576 9.93032C5.06622 10.7899 4.58333 11.9556 4.58333 13.1712V40.6712C4.58333 41.8868 5.06622 43.0526 5.92576 43.9121C6.7853 44.7717 7.95109 45.2546 9.16667 45.2546H36.6667C37.8822 45.2546 39.048 44.7717 39.9076 43.9121C40.7671 43.0526 41.25 41.8868 41.25 40.6712V31.5046C41.25 30.8968 41.4914 30.3139 41.9212 29.8841C42.351 29.4543 42.9339 29.2129 43.5417 29.2129C44.1495 29.2129 44.7323 29.4543 45.1621 29.8841C45.5919 30.3139 45.8333 30.8968 45.8333 31.5046V40.6712C45.8333 43.1024 44.8676 45.434 43.1485 47.153C41.4294 48.8721 39.0978 49.8379 36.6667 49.8379H9.16667C6.73551 49.8379 4.40394 48.8721 2.68485 47.153C0.965771 45.434 0 43.1024 0 40.6712V13.1712C0 10.7401 0.965771 8.40849 2.68485 6.68941C4.40394 4.97033 6.73551 4.00456 9.16667 4.00456H18.3333Z" fill="black"/>
</svg>
