<svg width="80" height="80" viewBox="0 0 80 80" fill="none" xmlns="http://www.w3.org/2000/svg">
<path d="M39.5833 71.25C47.9819 71.25 56.0364 67.9137 61.975 61.975C67.9137 56.0364 71.25 47.9819 71.25 39.5833C71.25 31.1848 67.9137 23.1303 61.975 17.1916C56.0364 11.253 47.9819 7.91667 39.5833 7.91667C31.1848 7.91667 23.1303 11.253 17.1916 17.1916C11.253 23.1303 7.91667 31.1848 7.91667 39.5833C7.91667 47.9819 11.253 56.0364 17.1916 61.975C23.1303 67.9137 31.1848 71.25 39.5833 71.25ZM39.5833 79.1667C17.7215 79.1667 0 61.4452 0 39.5833C0 17.7215 17.7215 0 39.5833 0C61.4452 0 79.1667 17.7215 79.1667 39.5833C79.1667 61.4452 61.4452 79.1667 39.5833 79.1667ZM35.625 55.4167H43.5417V63.3333H35.625V55.4167ZM35.625 15.8333H43.5417V47.5H35.625V15.8333Z" fill="#FF0000"/>
</svg>
